<svg xmlns="http://www.w3.org/2000/svg"  viewBox="0 0 333333 333333" shape-rendering="geometricPrecision" text-rendering="geometricPrecision" image-rendering="optimizeQuality" fill-rule="evenodd" clip-rule="evenodd"><path d="M166667 0c92048 0 166667 74619 166667 166667s-74619 166667-166667 166667S0 258715 0 166667 74619 0 166667 0zm66354 147612h-8544c-5231 0-9821-4430-10181-9525 0-27186-21917-47626-49291-47626l-24977-1c-27356 0-49541 22032-49561 49215v54000c0 27185 22204 49198 49561 49198h53339c27374 0 49501-22013 49501-49198l1-34880c0-5431-4382-11177-9852-11177l6-6zm-94931-19049h28577c5237 0 9526 4289 9526 9526s-4290 9526-9526 9526l-28577-3c-5237 0-9526-4289-9526-9525 0-5240 4289-9526 9526-9526v3zm57154 76198h-57154c-5237 0-9526-4286-9526-9525 0-5237 4289-9526 9526-9526l57154 5c5237 0 9526 4287 9526 9525 0 5237-4289 9526-9526 9526v-6z" fill="#f57d00"/></svg>